<svg width="20" height="16" viewBox="0 0 20 16" fill="none" xmlns="http://www.w3.org/2000/svg">
<rect y="0.858398" width="20" height="14.2857" rx="2" fill="white"/>
<mask id="mask0_7749_1992" style="mask-type:luminance" maskUnits="userSpaceOnUse" x="0" y="0" width="20" height="16">
<rect y="0.858398" width="20" height="14.2857" rx="2" fill="white"/>
</mask>
<g mask="url(#mask0_7749_1992)">
<path fill-rule="evenodd" clip-rule="evenodd" d="M20 0.858398H0V1.81078H20V0.858398ZM20 2.76316H0V3.71554H20V2.76316ZM0 4.66792H20V5.6203H0V4.66792ZM20 6.57268H0V7.52506H20V6.57268ZM0 8.47745H20V9.42983H0V8.47745ZM20 10.3822H0V11.3346H20V10.3822ZM0 12.287H20V13.2393H0V12.287ZM20 14.1917H0V15.1441H20V14.1917Z" fill="#D02F44"/>
<rect y="0.858398" width="8.57143" height="6.66667" fill="#46467F"/>
<g filter="url(#filter0_d_7749_1992)">
<path fill-rule="evenodd" clip-rule="evenodd" d="M1.90477 2.28698C1.90477 2.54997 1.69158 2.76317 1.42858 2.76317C1.16559 2.76317 0.952393 2.54997 0.952393 2.28698C0.952393 2.02399 1.16559 1.81079 1.42858 1.81079C1.69158 1.81079 1.90477 2.02399 1.90477 2.28698ZM3.80954 2.28698C3.80954 2.54997 3.59634 2.76317 3.33335 2.76317C3.07035 2.76317 2.85715 2.54997 2.85715 2.28698C2.85715 2.02399 3.07035 1.81079 3.33335 1.81079C3.59634 1.81079 3.80954 2.02399 3.80954 2.28698ZM5.23811 2.76317C5.5011 2.76317 5.7143 2.54997 5.7143 2.28698C5.7143 2.02399 5.5011 1.81079 5.23811 1.81079C4.97511 1.81079 4.76192 2.02399 4.76192 2.28698C4.76192 2.54997 4.97511 2.76317 5.23811 2.76317ZM7.61906 2.28698C7.61906 2.54997 7.40586 2.76317 7.14287 2.76317C6.87988 2.76317 6.66668 2.54997 6.66668 2.28698C6.66668 2.02399 6.87988 1.81079 7.14287 1.81079C7.40586 1.81079 7.61906 2.02399 7.61906 2.28698ZM2.38096 3.71555C2.64396 3.71555 2.85715 3.50236 2.85715 3.23936C2.85715 2.97637 2.64396 2.76317 2.38096 2.76317C2.11797 2.76317 1.90477 2.97637 1.90477 3.23936C1.90477 3.50236 2.11797 3.71555 2.38096 3.71555ZM4.76192 3.23936C4.76192 3.50236 4.54872 3.71555 4.28573 3.71555C4.02273 3.71555 3.80954 3.50236 3.80954 3.23936C3.80954 2.97637 4.02273 2.76317 4.28573 2.76317C4.54872 2.76317 4.76192 2.97637 4.76192 3.23936ZM6.19049 3.71555C6.45348 3.71555 6.66668 3.50236 6.66668 3.23936C6.66668 2.97637 6.45348 2.76317 6.19049 2.76317C5.9275 2.76317 5.7143 2.97637 5.7143 3.23936C5.7143 3.50236 5.9275 3.71555 6.19049 3.71555ZM7.61906 4.19174C7.61906 4.45474 7.40586 4.66793 7.14287 4.66793C6.87988 4.66793 6.66668 4.45474 6.66668 4.19174C6.66668 3.92875 6.87988 3.71555 7.14287 3.71555C7.40586 3.71555 7.61906 3.92875 7.61906 4.19174ZM5.23811 4.66793C5.5011 4.66793 5.7143 4.45474 5.7143 4.19174C5.7143 3.92875 5.5011 3.71555 5.23811 3.71555C4.97511 3.71555 4.76192 3.92875 4.76192 4.19174C4.76192 4.45474 4.97511 4.66793 5.23811 4.66793ZM3.80954 4.19174C3.80954 4.45474 3.59634 4.66793 3.33335 4.66793C3.07035 4.66793 2.85715 4.45474 2.85715 4.19174C2.85715 3.92875 3.07035 3.71555 3.33335 3.71555C3.59634 3.71555 3.80954 3.92875 3.80954 4.19174ZM1.42858 4.66793C1.69158 4.66793 1.90477 4.45474 1.90477 4.19174C1.90477 3.92875 1.69158 3.71555 1.42858 3.71555C1.16559 3.71555 0.952393 3.92875 0.952393 4.19174C0.952393 4.45474 1.16559 4.66793 1.42858 4.66793ZM2.85715 5.14412C2.85715 5.40712 2.64396 5.62031 2.38096 5.62031C2.11797 5.62031 1.90477 5.40712 1.90477 5.14412C1.90477 4.88113 2.11797 4.66793 2.38096 4.66793C2.64396 4.66793 2.85715 4.88113 2.85715 5.14412ZM4.28573 5.62031C4.54872 5.62031 4.76192 5.40712 4.76192 5.14412C4.76192 4.88113 4.54872 4.66793 4.28573 4.66793C4.02273 4.66793 3.80954 4.88113 3.80954 5.14412C3.80954 5.40712 4.02273 5.62031 4.28573 5.62031ZM6.66668 5.14412C6.66668 5.40712 6.45348 5.62031 6.19049 5.62031C5.9275 5.62031 5.7143 5.40712 5.7143 5.14412C5.7143 4.88113 5.9275 4.66793 6.19049 4.66793C6.45348 4.66793 6.66668 4.88113 6.66668 5.14412ZM7.14287 6.5727C7.40586 6.5727 7.61906 6.3595 7.61906 6.09651C7.61906 5.83351 7.40586 5.62031 7.14287 5.62031C6.87988 5.62031 6.66668 5.83351 6.66668 6.09651C6.66668 6.3595 6.87988 6.5727 7.14287 6.5727ZM5.7143 6.09651C5.7143 6.3595 5.5011 6.5727 5.23811 6.5727C4.97511 6.5727 4.76192 6.3595 4.76192 6.09651C4.76192 5.83351 4.97511 5.62031 5.23811 5.62031C5.5011 5.62031 5.7143 5.83351 5.7143 6.09651ZM3.33335 6.5727C3.59634 6.5727 3.80954 6.3595 3.80954 6.09651C3.80954 5.83351 3.59634 5.62031 3.33335 5.62031C3.07035 5.62031 2.85715 5.83351 2.85715 6.09651C2.85715 6.3595 3.07035 6.5727 3.33335 6.5727ZM1.90477 6.09651C1.90477 6.3595 1.69158 6.5727 1.42858 6.5727C1.16559 6.5727 0.952393 6.3595 0.952393 6.09651C0.952393 5.83351 1.16559 5.62031 1.42858 5.62031C1.69158 5.62031 1.90477 5.83351 1.90477 6.09651Z" fill="url(#paint0_linear_7749_1992)"/>
</g>
</g>
<defs>
<filter id="filter0_d_7749_1992" x="0.952393" y="1.81079" width="6.66663" height="5.76196" filterUnits="userSpaceOnUse" color-interpolation-filters="sRGB">
<feFlood flood-opacity="0" result="BackgroundImageFix"/>
<feColorMatrix in="SourceAlpha" type="matrix" values="0 0 0 0 0 0 0 0 0 0 0 0 0 0 0 0 0 0 127 0" result="hardAlpha"/>
<feOffset dy="1"/>
<feColorMatrix type="matrix" values="0 0 0 0 0 0 0 0 0 0 0 0 0 0 0 0 0 0 0.06 0"/>
<feBlend mode="normal" in2="BackgroundImageFix" result="effect1_dropShadow_7749_1992"/>
<feBlend mode="normal" in="SourceGraphic" in2="effect1_dropShadow_7749_1992" result="shape"/>
</filter>
<linearGradient id="paint0_linear_7749_1992" x1="0.952393" y1="1.81079" x2="0.952393" y2="6.5727" gradientUnits="userSpaceOnUse">
<stop stop-color="white"/>
<stop offset="1" stop-color="#F0F0F0"/>
</linearGradient>
</defs>
</svg>
