<svg width="40" height="40" viewBox="0 0 40 40" fill="none" xmlns="http://www.w3.org/2000/svg">
<g id="achievments 1" clip-path="url(#clip0_7576_2361)">
<g id="Group">
<g id="Group_2">
<g id="Group_3">
<g id="Vector">
<path d="M24.688 40.0001C24.6468 40.0001 24.6056 39.9979 24.5644 39.9932C24.0929 39.944 23.6992 39.6144 23.5641 39.16L20.657 29.1586C20.4967 28.6127 20.7508 28.0301 21.2613 27.7772C21.4696 27.673 21.6527 27.5551 21.8335 27.4063C22.1334 27.1591 22.534 27.079 22.907 27.1865C23.6487 27.4052 24.3102 27.3949 24.8665 27.159C25.4616 26.9187 25.9491 26.4426 26.3268 25.7398C26.51 25.4011 26.8464 25.1733 27.2264 25.1298C28.0459 25.0382 28.68 24.7727 29.1103 24.3412C29.2041 24.2485 29.3026 24.1341 29.3827 24.0207C29.6436 23.6579 30.0831 23.4759 30.5318 23.5457C30.9735 23.6201 31.3329 23.9394 31.4611 24.3686L34.8123 35.6902C34.9474 36.1457 34.794 36.6367 34.4255 36.9354C34.0569 37.2319 33.5396 37.2799 33.1276 37.0522L28.3207 34.4268L25.718 39.3867C25.512 39.7678 25.1137 40.0001 24.688 40.0001Z" fill="#27282A"/>
<path d="M24.5805 39.8496L24.5794 39.8495C24.1667 39.8064 23.8214 39.5179 23.7027 39.1192C23.7027 39.1191 23.7027 39.119 23.7026 39.1188L20.7958 29.1183L20.7957 29.1179C20.6551 28.6392 20.878 28.1284 21.3255 27.9067L21.3259 27.9064C21.5436 27.7976 21.7359 27.6738 21.9253 27.518L21.9254 27.5179C22.1878 27.3016 22.5387 27.231 22.8666 27.3253C23.6308 27.5505 24.3275 27.5442 24.9217 27.2926C25.5549 27.0365 26.0648 26.5326 26.4541 25.8084C26.6148 25.5111 26.9099 25.3116 27.2427 25.2734C28.083 25.1795 28.7518 24.9052 29.2123 24.4436C29.3115 24.3455 29.4152 24.225 29.5004 24.1046C29.7288 23.7873 30.1134 23.6272 30.5086 23.6884C30.8953 23.7539 31.2101 24.0335 31.3226 24.4098C31.3226 24.4099 31.3226 24.4099 31.3226 24.41L34.6737 35.7312L34.6737 35.7313C34.7921 36.1304 34.6579 36.5608 34.3347 36.8229C34.0111 37.0831 33.5573 37.1245 33.1976 36.9257L33.1969 36.9253L28.39 34.3L28.261 34.2295L28.1927 34.3597L25.5909 39.318C25.5907 39.3182 25.5906 39.3185 25.5904 39.3187C25.4099 39.652 25.061 39.8556 24.688 39.8556C24.6521 39.8556 24.6162 39.8536 24.5805 39.8496Z" stroke="url(#paint0_linear_7576_2361)" stroke-opacity="0.12" stroke-width="0.28909"/>
</g>
</g>
<g id="Group_4">
<g id="Vector_2">
<path d="M15.3578 40C14.9321 40 14.5337 39.7677 14.3277 39.3866L11.725 34.4268L6.91809 37.0523C6.5061 37.2801 5.98644 37.2321 5.62023 36.9344C5.25168 36.6357 5.09831 36.1448 5.2334 35.6892L8.58684 24.4145C8.71506 23.9853 9.07673 23.666 9.51849 23.5927C9.95338 23.5161 10.4044 23.7026 10.6653 24.0677C10.7409 24.1753 10.8164 24.2691 10.8943 24.3458C11.2971 24.7636 11.8946 25.0177 12.7301 25.1344C13.0917 25.1836 13.4099 25.3999 13.5884 25.717C13.9844 26.414 14.4628 26.8832 15.0122 27.1121C15.5936 27.3708 16.2689 27.3753 17.0357 27.143C17.4134 27.0286 17.8231 27.1121 18.1253 27.3639C18.3107 27.5185 18.5304 27.6626 18.8188 27.8183C19.3087 28.0815 19.5467 28.6515 19.3888 29.1837L16.4817 39.1611C16.3466 39.6154 15.9507 39.944 15.4791 39.9931C15.438 39.9978 15.3991 40 15.3578 40Z" fill="#27282A"/>
<path d="M11.7847 34.2295L11.853 34.3596L14.4549 39.3178C14.455 39.3181 14.4551 39.3183 14.4553 39.3186C14.6359 39.652 14.9848 39.8555 15.3578 39.8555C15.3934 39.8555 15.4269 39.8536 15.4628 39.8495L15.4642 39.8493C15.8774 39.8063 16.2245 39.5184 16.343 39.1204C16.3431 39.1202 16.3431 39.12 16.3432 39.1199L19.25 29.1433L19.2502 29.1426C19.3886 28.6762 19.1801 28.1765 18.7504 27.9456L18.7502 27.9455C18.456 27.7867 18.2276 27.6374 18.0327 27.4749M11.7847 34.2295L18.1253 27.3639M11.7847 34.2295L11.6557 34.2999L6.8488 36.9255L6.84816 36.9258C6.48824 37.1248 6.03227 37.083 5.71139 36.8223L5.71124 36.8221C5.38797 36.5601 5.25359 36.1297 5.37194 35.7304C5.37196 35.7303 5.37197 35.7303 5.37198 35.7303L8.72534 24.4559C8.72535 24.4558 8.72536 24.4558 8.72538 24.4557C8.83785 24.0794 9.15502 23.7995 9.54215 23.7353L9.54215 23.7353L9.54358 23.735C9.92243 23.6683 10.3181 23.8309 10.5474 24.1512C10.6254 24.2623 10.706 24.363 10.7915 24.4475C11.2252 24.8965 11.8581 25.1585 12.7101 25.2776L12.7106 25.2776C13.0274 25.3208 13.3062 25.5103 13.4625 25.7879L13.4627 25.7884C13.8687 26.5029 14.3679 26.9998 14.9551 27.2449M11.7847 34.2295L15.0122 27.1121M18.0327 27.4749L18.1253 27.3639M18.0327 27.4749C18.0327 27.475 18.0327 27.475 18.0327 27.475L18.1253 27.3639M18.0327 27.4749C17.7679 27.2543 17.4087 27.181 17.0776 27.2814L17.0776 27.2814C16.2886 27.5204 15.5764 27.5208 14.9551 27.2449M18.1253 27.3639C17.8231 27.1121 17.4134 27.0286 17.0357 27.143C16.2689 27.3753 15.5936 27.3708 15.0122 27.1121M14.9551 27.2449C14.9556 27.2451 14.9561 27.2453 14.9566 27.2455L15.0122 27.1121M14.9551 27.2449C14.9545 27.2446 14.954 27.2444 14.9535 27.2442L15.0122 27.1121" stroke="url(#paint1_linear_7576_2361)" stroke-opacity="0.12" stroke-width="0.28909"/>
</g>
</g>
<g id="Group_5">
<g id="Vector_3">
<path d="M20 30.468C18.9492 30.468 18.0132 30.121 17.125 29.5363C16.0308 29.7675 15.0031 29.6737 14.0852 29.265C13.2176 28.9033 12.4623 28.2613 11.8511 27.3594C10.7477 27.1247 9.88251 26.6727 9.21869 25.986C8.50488 25.261 8.06999 24.3148 7.86591 23.318C6.94113 22.7092 6.28193 21.9286 5.90424 20.9913C5.53569 20.1111 5.45099 19.104 5.65476 18.059C5.06416 17.1618 4.76436 16.2129 4.76436 15.232C4.76436 14.2477 5.07799 13.284 5.69601 12.3593C5.46943 11.2594 5.55866 10.2396 5.96612 9.32053C6.32779 8.45069 6.97098 7.6953 7.87286 7.08298C8.10632 5.97967 8.55957 5.11443 9.24628 4.45062C9.92837 3.76961 10.828 3.31183 11.9175 3.09549C12.5264 2.17298 13.3047 1.51604 14.2409 1.13725C15.1222 0.770966 16.1294 0.681739 17.1731 0.886602C18.9654 -0.297964 21.0279 -0.307106 22.8728 0.92895C23.9647 0.70346 25.0039 0.796203 25.9126 1.19788C26.7825 1.56073 27.5379 2.20274 28.149 3.10463C29.2523 3.33926 30.1176 3.79133 30.7814 4.47804C31.4635 5.16248 31.9191 6.06093 32.1365 7.14705C33.059 7.75593 33.7182 8.53648 34.0959 9.47274C34.4645 10.3529 34.5492 11.36 34.3454 12.405C34.936 13.3022 35.2358 14.2511 35.2358 15.232C35.2358 16.2163 34.9222 17.18 34.3041 18.1047C34.5307 19.2046 34.4415 20.2244 34.034 21.1435C33.6724 22.0144 33.0268 22.771 32.1227 23.3833C31.8647 24.568 31.4293 25.3267 30.7722 25.9962C30.074 26.692 29.1721 27.1522 28.0825 27.3684C27.4736 28.2898 26.6954 28.9479 25.7592 29.3267C24.8802 29.6963 23.8776 29.7834 22.8292 29.5773C21.9746 30.1261 21.0276 30.468 20 30.468Z" fill="#FABE2C"/>
<path d="M20 30.468C18.9492 30.468 18.0132 30.121 17.125 29.5363C16.0308 29.7675 15.0031 29.6737 14.0852 29.265C13.2176 28.9033 12.4623 28.2613 11.8511 27.3594C10.7477 27.1247 9.88251 26.6727 9.21869 25.986C8.50488 25.261 8.06999 24.3148 7.86591 23.318C6.94113 22.7092 6.28193 21.9286 5.90424 20.9913C5.53569 20.1111 5.45099 19.104 5.65476 18.059C5.06416 17.1618 4.76436 16.2129 4.76436 15.232C4.76436 14.2477 5.07799 13.284 5.69601 12.3593C5.46943 11.2594 5.55866 10.2396 5.96612 9.32053C6.32779 8.45069 6.97098 7.6953 7.87286 7.08298C8.10632 5.97967 8.55957 5.11443 9.24628 4.45062C9.92837 3.76961 10.828 3.31183 11.9175 3.09549C12.5264 2.17298 13.3047 1.51604 14.2409 1.13725C15.1222 0.770966 16.1294 0.681739 17.1731 0.886602C18.9654 -0.297964 21.0279 -0.307106 22.8728 0.92895C23.9647 0.70346 25.0039 0.796203 25.9126 1.19788C26.7825 1.56073 27.5379 2.20274 28.149 3.10463C29.2523 3.33926 30.1176 3.79133 30.7814 4.47804C31.4635 5.16248 31.9191 6.06093 32.1365 7.14705C33.059 7.75593 33.7182 8.53648 34.0959 9.47274C34.4645 10.3529 34.5492 11.36 34.3454 12.405C34.936 13.3022 35.2358 14.2511 35.2358 15.232C35.2358 16.2163 34.9222 17.18 34.3041 18.1047C34.5307 19.2046 34.4415 20.2244 34.034 21.1435C33.6724 22.0144 33.0268 22.771 32.1227 23.3833C31.8647 24.568 31.4293 25.3267 30.7722 25.9962C30.074 26.692 29.1721 27.1522 28.0825 27.3684C27.4736 28.2898 26.6954 28.9479 25.7592 29.3267C24.8802 29.6963 23.8776 29.7834 22.8292 29.5773C21.9746 30.1261 21.0276 30.468 20 30.468Z" fill="url(#paint2_linear_7576_2361)"/>
</g>
</g>
<g id="Group_6">
<g id="Vector_4">
<path d="M20 25.7801C14.1836 25.7801 9.45216 21.0486 9.45216 15.2322C9.45216 9.41579 14.1836 4.68433 20 4.68433C25.8165 4.68433 30.5479 9.41579 30.5479 15.2322C30.5479 21.0486 25.8165 25.7801 20 25.7801Z" fill="url(#paint3_linear_7576_2361)" fill-opacity="0.16"/>
<path d="M20 25.6356C14.2635 25.6356 9.59669 20.9688 9.59669 15.2322C9.59669 9.49562 14.2635 4.82886 20 4.82886C25.7366 4.82886 30.4034 9.49562 30.4034 15.2322C30.4034 20.9688 25.7366 25.6356 20 25.6356Z" stroke="url(#paint4_linear_7576_2361)" stroke-opacity="0.12" stroke-width="0.289062"/>
</g>
</g>
<g id="Rewards_1_">
<g id="Group_7">
<path id="Vector_5" d="M21.8701 19.5916L20 18.6199L18.1298 19.5916C17.7383 19.7942 17.2599 19.7587 16.9006 19.5C16.5412 19.2391 16.3604 18.7973 16.4336 18.3601L16.777 16.2782L15.2777 14.7983C14.9514 14.4802 14.8516 14.0085 14.9847 13.6012C15.1221 13.18 15.486 12.871 15.9255 12.8046L18.0085 12.491L18.9516 10.606C19.3499 9.81168 20.65 9.81168 21.0483 10.606L21.9914 12.491L24.0744 12.8046C24.5139 12.871 24.8779 13.18 25.0152 13.6012C25.1526 14.0235 25.0404 14.487 24.7222 14.7983L23.2229 16.2782L23.5663 18.3601C23.6396 18.7973 23.4587 19.2391 23.0993 19.5C22.7424 19.7587 22.2648 19.7969 21.8701 19.5916Z" fill="url(#paint5_linear_7576_2361)"/>
</g>
</g>
</g>
</g>
</g>
<defs>
<linearGradient id="paint0_linear_7576_2361" x1="20.0612" y1="20.2372" x2="35.125" y2="21.0394" gradientUnits="userSpaceOnUse">
<stop stop-color="white" stop-opacity="0.37"/>
<stop offset="1" stop-color="white"/>
</linearGradient>
<linearGradient id="paint1_linear_7576_2361" x1="4.6368" y1="20.2908" x2="19.7013" y2="21.0953" gradientUnits="userSpaceOnUse">
<stop stop-color="white" stop-opacity="0.37"/>
<stop offset="1" stop-color="white"/>
</linearGradient>
<linearGradient id="paint2_linear_7576_2361" x1="26.2506" y1="3.69481e-08" x2="9.45625" y2="26.5833" gradientUnits="userSpaceOnUse">
<stop stop-color="#131416"/>
<stop offset="1" stop-color="#1A1B1F"/>
</linearGradient>
<linearGradient id="paint3_linear_7576_2361" x1="8.64078" y1="0.465175" x2="30.9179" y2="1.83608" gradientUnits="userSpaceOnUse">
<stop stop-color="white" stop-opacity="0.37"/>
<stop offset="1" stop-color="white"/>
</linearGradient>
<linearGradient id="paint4_linear_7576_2361" x1="8.64078" y1="0.465175" x2="30.9179" y2="1.83608" gradientUnits="userSpaceOnUse">
<stop stop-color="white" stop-opacity="0.37"/>
<stop offset="1" stop-color="white"/>
</linearGradient>
<linearGradient id="paint5_linear_7576_2361" x1="25.0729" y1="10.0103" x2="14.1995" y2="16.1292" gradientUnits="userSpaceOnUse">
<stop stop-color="#B0FF4D"/>
<stop offset="1" stop-color="#FFE926"/>
</linearGradient>
<clipPath id="clip0_7576_2361">
<rect width="40" height="40" fill="white"/>
</clipPath>
</defs>
</svg>
