<svg width="40" height="40" viewBox="0 0 40 40" fill="none" xmlns="http://www.w3.org/2000/svg">
<rect width="40" height="40" rx="12" fill="white"/>
<path d="M13.269 17.75C13.2678 16.8608 13.4425 15.9802 13.783 15.1589C14.1235 14.3375 14.6232 13.5917 15.2532 12.9643C15.8833 12.3369 16.6312 11.8403 17.4539 11.5032C18.2767 11.166 19.158 10.995 20.0472 11C23.7597 11.0281 26.7315 14.1125 26.7315 17.8344V18.5C26.7315 21.8562 27.4347 23.8062 28.0534 24.875C28.1191 24.9888 28.1538 25.1179 28.1539 25.2493C28.154 25.3808 28.1196 25.5099 28.0541 25.6238C27.9886 25.7378 27.8943 25.8325 27.7806 25.8985C27.667 25.9645 27.538 25.9995 27.4065 26H12.594C12.4626 25.9995 12.3336 25.9645 12.22 25.8985C12.1063 25.8325 12.012 25.7378 11.9465 25.6238C11.881 25.5099 11.8466 25.3808 11.8467 25.2493C11.8468 25.1179 11.8814 24.9888 11.9472 24.875C12.5659 23.8062 13.269 21.8562 13.269 18.5V17.75Z" stroke="#71717A" stroke-width="2" stroke-linecap="round" stroke-linejoin="round"/>
<path d="M17 26V26.75C17 27.5456 17.3161 28.3087 17.8787 28.8713C18.4413 29.4339 19.2044 29.75 20 29.75C20.7956 29.75 21.5587 29.4339 22.1213 28.8713C22.6839 28.3087 23 27.5456 23 26.75V26" stroke="#71717A" stroke-width="2" stroke-linecap="round" stroke-linejoin="round"/>
<circle cx="29" cy="10" r="8" fill="#EC4899"/>
<path d="M30.5687 5.27273V14H28.7235V7.02415H28.6724L26.6738 8.27699V6.64062L28.8343 5.27273H30.5687Z" fill="white"/>
</svg>
