<svg width="58" height="60" viewBox="0 0 58 60" fill="none" xmlns="http://www.w3.org/2000/svg">
<g id="cup" filter="url(#filter0_d_4_8268)">
<path id="Vector" d="M28 34.3334H25C23.5333 34.3334 22.3333 35.5334 22.3333 37V37.3334H21C20.4533 37.3334 20 37.7867 20 38.3334C20 38.88 20.4533 39.3334 21 39.3334H37C37.5467 39.3334 38 38.88 38 38.3334C38 37.7867 37.5467 37.3334 37 37.3334H35.6667V37C35.6667 35.5334 34.4667 34.3334 33 34.3334H30V31.28C29.6667 31.32 29.3333 31.3334 29 31.3334C28.6667 31.3334 28.3333 31.32 28 31.28V34.3334Z" fill="#FE6712"/>
<path id="Vector_2" d="M37.64 25.5201C38.52 25.1867 39.2933 24.6401 39.9067 24.0267C41.1467 22.6534 41.96 21.0134 41.96 19.0934C41.96 17.1734 40.4533 15.6667 38.5333 15.6667H37.7867C36.92 13.8934 35.1067 12.6667 33 12.6667H25C22.8933 12.6667 21.08 13.8934 20.2133 15.6667H19.4667C17.5467 15.6667 16.04 17.1734 16.04 19.0934C16.04 21.0134 16.8533 22.6534 18.0933 24.0267C18.7067 24.6401 19.48 25.1867 20.36 25.5201C21.7467 28.9334 25.08 31.3334 29 31.3334C32.92 31.3334 36.2533 28.9334 37.64 25.5201ZM32.7867 21.2667L31.96 22.2801C31.8267 22.4267 31.7333 22.7201 31.7467 22.9201L31.8267 24.2267C31.88 25.0267 31.3067 25.4401 30.56 25.1467L29.3467 24.6667C29.16 24.6001 28.84 24.6001 28.6533 24.6667L27.44 25.1467C26.6933 25.4401 26.12 25.0267 26.1733 24.2267L26.2533 22.9201C26.2667 22.7201 26.1733 22.4267 26.04 22.2801L25.2133 21.2667C24.6933 20.6534 24.92 19.9734 25.6933 19.7734L26.96 19.4534C27.16 19.4001 27.4 19.2134 27.5067 19.0401L28.2133 17.9467C28.6533 17.2667 29.3467 17.2667 29.7867 17.9467L30.4933 19.0401C30.6 19.2134 30.84 19.4001 31.04 19.4534L32.3067 19.7734C33.08 19.9734 33.3067 20.6534 32.7867 21.2667Z" fill="#FE6712"/>
</g>
<defs>
<filter id="filter0_d_4_8268" x="-3" y="-2" width="64" height="64" filterUnits="userSpaceOnUse" color-interpolation-filters="sRGB">
<feFlood flood-opacity="0" result="BackgroundImageFix"/>
<feColorMatrix in="SourceAlpha" type="matrix" values="0 0 0 0 0 0 0 0 0 0 0 0 0 0 0 0 0 0 127 0" result="hardAlpha"/>
<feOffset dy="4"/>
<feGaussianBlur stdDeviation="8"/>
<feComposite in2="hardAlpha" operator="out"/>
<feColorMatrix type="matrix" values="0 0 0 0 0.970937 0 0 0 0 0.598163 0 0 0 0 0.254063 0 0 0 0.48 0"/>
<feBlend mode="normal" in2="BackgroundImageFix" result="effect1_dropShadow_4_8268"/>
<feBlend mode="normal" in="SourceGraphic" in2="effect1_dropShadow_4_8268" result="shape"/>
</filter>
</defs>
</svg>
