<svg width="59" height="56" viewBox="0 0 59 56" fill="none" xmlns="http://www.w3.org/2000/svg">
<g id="Heartbeat" filter="url(#filter0_d_4_8276)">
<path id="Vector" d="M43 19.5C43 23.325 40.7875 27.25 36.425 31.175C34.444 32.9559 32.2871 34.5306 29.9875 35.875C29.8381 35.9571 29.6704 36.0001 29.5 36.0001C29.3296 36.0001 29.1619 35.9571 29.0125 35.875C28.6125 35.65 21.4625 31.5875 17.9375 25.7625C17.8908 25.6868 17.8651 25.6 17.8632 25.5111C17.8612 25.4221 17.883 25.3343 17.9263 25.2566C17.9696 25.1789 18.0329 25.1141 18.1095 25.069C18.1862 25.0239 18.2735 25.0001 18.3625 25H22.5C22.6662 25.0015 22.8301 24.9611 22.9765 24.8824C23.1229 24.8038 23.247 24.6894 23.3375 24.55L24.5 22.8L27.6625 27.55C27.7849 27.7324 27.9632 27.87 28.1707 27.9422C28.3781 28.0143 28.6034 28.0171 28.8125 27.95C29.0306 27.8725 29.2187 27.7281 29.35 27.5375L31.0375 25H33.4625C33.722 25.0041 33.9734 24.9096 34.1659 24.7356C34.3585 24.5616 34.4779 24.3211 34.5 24.0625C34.5085 23.926 34.489 23.7892 34.4426 23.6606C34.3962 23.532 34.3239 23.4142 34.2302 23.3146C34.1364 23.2151 34.0233 23.1358 33.8977 23.0816C33.7721 23.0275 33.6368 22.9997 33.5 23H30.5C30.3338 22.9985 30.1699 23.0389 30.0235 23.1176C29.8771 23.1962 29.753 23.3106 29.6625 23.45L28.5 25.2L25.3375 20.45C25.2151 20.2676 25.0368 20.13 24.8293 20.0578C24.6219 19.9857 24.3966 19.9829 24.1875 20.05C23.9694 20.1275 23.7813 20.2719 23.65 20.4625L21.9625 23H16.975C16.8689 22.9996 16.7658 22.9654 16.6804 22.9025C16.595 22.8396 16.5318 22.7512 16.5 22.65C16.178 21.6306 16.0095 20.569 16 19.5C16 17.9259 16.4953 16.3917 17.4157 15.1147C18.3361 13.8377 19.635 12.8827 21.1283 12.3849C22.6216 11.8871 24.2337 11.8718 25.7363 12.3411C27.2388 12.8105 28.5555 13.7407 29.5 15C30.4445 13.7407 31.7612 12.8105 33.2637 12.3411C34.7663 11.8718 36.3784 11.8871 37.8717 12.3849C39.365 12.8827 40.6639 13.8377 41.5843 15.1147C42.5047 16.3917 43 17.9259 43 19.5Z" fill="#EC4899"/>
</g>
<defs>
<filter id="filter0_d_4_8276" x="0" y="0" width="59" height="56" filterUnits="userSpaceOnUse" color-interpolation-filters="sRGB">
<feFlood flood-opacity="0" result="BackgroundImageFix"/>
<feColorMatrix in="SourceAlpha" type="matrix" values="0 0 0 0 0 0 0 0 0 0 0 0 0 0 0 0 0 0 127 0" result="hardAlpha"/>
<feOffset dy="4"/>
<feGaussianBlur stdDeviation="8"/>
<feComposite in2="hardAlpha" operator="out"/>
<feColorMatrix type="matrix" values="0 0 0 0 0.970937 0 0 0 0 0.254063 0 0 0 0 0.813225 0 0 0 0.48 0"/>
<feBlend mode="normal" in2="BackgroundImageFix" result="effect1_dropShadow_4_8276"/>
<feBlend mode="normal" in="SourceGraphic" in2="effect1_dropShadow_4_8276" result="shape"/>
</filter>
</defs>
</svg>
