<svg width="66" height="40" viewBox="0 0 66 40" fill="none" xmlns="http://www.w3.org/2000/svg">
<g filter="url(#filter0_b_3_14128)">
<g filter="url(#filter1_b_3_14128)">
<rect width="66" height="40" rx="12" fill="white"/>
<path d="M32.2309 19.0814C32.2031 18.9605 32.1457 18.8484 32.0639 18.7552C31.982 18.6619 31.8784 18.5904 31.7622 18.5471L26.3622 16.5221L27.7309 9.65018C27.7624 9.491 27.742 9.32593 27.6729 9.17915C27.6037 9.03237 27.4893 8.9116 27.3465 8.83456C27.2023 8.75784 27.0368 8.73096 26.8757 8.75809C26.7146 8.78522 26.567 8.86484 26.4559 8.98456L15.9559 20.2346C15.8699 20.3238 15.8076 20.4333 15.7749 20.5528C15.7421 20.6724 15.7399 20.7983 15.7684 20.9189C15.7978 21.0392 15.8557 21.1505 15.9373 21.2436C16.0189 21.3366 16.1218 21.4085 16.2372 21.4533L21.6372 23.4783L20.2684 30.3502C20.2369 30.5094 20.2573 30.6744 20.3264 30.8212C20.3956 30.968 20.51 31.0888 20.6528 31.1658C20.7604 31.2201 20.8791 31.249 20.9997 31.2502C21.1015 31.2506 21.2024 31.23 21.296 31.1897C21.3895 31.1494 21.4738 31.0902 21.5434 31.0158L32.0434 19.7658C32.1294 19.6765 32.1917 19.5671 32.2245 19.4475C32.2572 19.328 32.2594 19.2021 32.2309 19.0814Z" fill="#6366F1"/>
<path d="M42.7564 26V23.9773L47.0007 20.2614C47.3189 19.9735 47.5897 19.7102 47.8132 19.4716C48.0367 19.2292 48.2071 18.9867 48.3246 18.7443C48.442 18.4981 48.5007 18.2311 48.5007 17.9432C48.5007 17.6212 48.4306 17.3466 48.2905 17.1193C48.1503 16.8883 47.9571 16.7102 47.7109 16.5852C47.4647 16.4602 47.1825 16.3977 46.8643 16.3977C46.5424 16.3977 46.2602 16.464 46.0178 16.5966C45.7753 16.7254 45.5859 16.9129 45.4496 17.1591C45.317 17.4053 45.2507 17.7045 45.2507 18.0568H42.5859C42.5859 17.2652 42.764 16.5814 43.12 16.0057C43.4761 15.4299 43.9761 14.9867 44.62 14.6761C45.2678 14.3617 46.0196 14.2045 46.8757 14.2045C47.7583 14.2045 48.5253 14.3523 49.1768 14.6477C49.8284 14.9432 50.3321 15.3561 50.6882 15.8864C51.0481 16.4129 51.228 17.0246 51.228 17.7216C51.228 18.1648 51.139 18.6042 50.9609 19.0398C50.7829 19.4754 50.4628 19.9564 50.0007 20.483C49.5424 21.0095 48.8909 21.6402 48.0462 22.375L46.6541 23.6591V23.733H51.37V26H42.7564Z" fill="#71717A"/>
</g>
</g>
<defs>
<filter id="filter0_b_3_14128" x="-16" y="-16" width="98" height="72" filterUnits="userSpaceOnUse" color-interpolation-filters="sRGB">
<feFlood flood-opacity="0" result="BackgroundImageFix"/>
<feGaussianBlur in="BackgroundImageFix" stdDeviation="8"/>
<feComposite in2="SourceAlpha" operator="in" result="effect1_backgroundBlur_3_14128"/>
<feBlend mode="normal" in="SourceGraphic" in2="effect1_backgroundBlur_3_14128" result="shape"/>
</filter>
<filter id="filter1_b_3_14128" x="-16" y="-16" width="98" height="72" filterUnits="userSpaceOnUse" color-interpolation-filters="sRGB">
<feFlood flood-opacity="0" result="BackgroundImageFix"/>
<feGaussianBlur in="BackgroundImageFix" stdDeviation="8"/>
<feComposite in2="SourceAlpha" operator="in" result="effect1_backgroundBlur_3_14128"/>
<feBlend mode="normal" in="SourceGraphic" in2="effect1_backgroundBlur_3_14128" result="shape"/>
</filter>
</defs>
</svg>
