<svg width="40" height="40" viewBox="0 0 40 40" fill="none" xmlns="http://www.w3.org/2000/svg">
<g id="react" clip-path="url(#clip0_7576_2324)">
<g id="Group">
<path id="Vector" d="M30.625 0H9.375C4.19733 0 0 4.19733 0 9.375V30.625C0 35.8027 4.19733 40 9.375 40H30.625C35.8027 40 40 35.8027 40 30.625V9.375C40 4.19733 35.8027 0 30.625 0Z" fill="url(#paint0_linear_7576_2324)"/>
<path id="Vector_2" d="M20.0001 22.9611C21.6101 22.9611 22.9151 21.6559 22.9151 20.0461C22.9151 18.4363 21.6101 17.1311 20.0001 17.1311C18.3903 17.1311 17.0851 18.4363 17.0851 20.0461C17.0851 21.6559 18.3903 22.9611 20.0001 22.9611Z" fill="url(#paint1_linear_7576_2324)"/>
<path id="Vector_3" d="M30.1285 16.0974L30.1285 16.0974C31.7415 16.6526 33.0158 17.3422 33.8764 18.0603C34.7508 18.7899 35.125 19.4839 35.125 20.046C35.125 20.6384 34.7234 21.3752 33.7877 22.1455C32.867 22.9035 31.5022 23.6297 29.7685 24.204C27.1529 25.0706 23.6809 25.5309 20.0003 25.5309C16.2205 25.5309 12.6741 25.0979 10.034 24.1957C8.36119 23.6239 7.04749 22.8943 6.1623 22.1362C5.263 21.3661 4.875 20.6299 4.875 20.046C4.875 19.4833 5.23418 18.795 6.07665 18.0743C6.90785 17.3631 8.14644 16.6783 9.73522 16.1244L9.73524 16.1244C12.4219 15.1877 16.0894 14.6191 19.9997 14.6191H20.0003C23.8718 14.6191 27.4506 15.1753 30.1285 16.0974Z" stroke="url(#paint2_linear_7576_2324)"/>
<path id="Vector_4" d="M15.1732 17.5241C13.2747 20.8557 11.9716 24.246 11.45 26.9934L10.9587 26.9002L11.45 26.9934C11.1361 28.6465 11.1105 30.0617 11.3113 31.137C11.5148 32.227 11.9316 32.8818 12.4189 33.1626L12.419 33.1626C12.9247 33.4543 13.7563 33.486 14.8728 33.0916C15.9718 32.7035 17.2602 31.93 18.5912 30.7665L18.5913 30.7665C20.6914 28.9309 22.838 26.0751 24.7264 22.8007C26.5652 19.6122 27.9015 16.3747 28.457 13.6761L28.457 13.676C28.8255 11.8873 28.8782 10.3422 28.6816 9.16585C28.4817 7.97044 28.044 7.25441 27.5309 6.95846L15.1732 17.5241ZM15.1732 17.5241L15.2739 17.3495C17.2081 13.9957 19.4776 11.1734 21.6141 9.31438L21.6142 9.31435C22.9009 8.19446 24.135 7.43504 25.187 7.04823C26.2559 6.65521 27.044 6.67772 27.5308 6.95845L15.1732 17.5241Z" stroke="url(#paint3_linear_7576_2324)"/>
<path id="Vector_5" d="M15.2783 22.8086L15.2783 22.8086C17.2376 26.1928 19.5671 29.082 21.7238 30.9378L21.7238 30.9378C22.9992 32.0354 24.2125 32.7642 25.2443 33.1272C26.2902 33.4952 27.0658 33.4612 27.5527 33.1793L27.5528 33.1792C28.058 32.8868 28.5008 32.1822 28.7168 31.018C28.9293 29.8721 28.9026 28.3696 28.5593 26.6353C28.0177 23.8992 26.6157 20.6129 24.722 17.3417C22.8779 14.1563 20.7401 11.3822 18.6796 9.55273L18.6796 9.55272C17.3139 8.34013 16.0017 7.52273 14.8844 7.10567C13.749 6.68182 12.9101 6.70344 12.3974 7.0003L12.3973 7.00032C11.9109 7.28191 11.4978 7.95337 11.3044 9.0757C11.1141 10.1803 11.1558 11.6286 11.4833 13.3028L15.2783 22.8086ZM15.2783 22.8086C13.3388 19.4587 12.0276 16.0823 11.4833 13.3028L15.2783 22.8086Z" stroke="url(#paint4_linear_7576_2324)"/>
</g>
</g>
<defs>
<linearGradient id="paint0_linear_7576_2324" x1="28.2051" y1="4.85075e-08" x2="6.15546" y2="34.8977" gradientUnits="userSpaceOnUse">
<stop stop-color="#131416"/>
<stop offset="1" stop-color="#1A1B1F"/>
</linearGradient>
<linearGradient id="paint1_linear_7576_2324" x1="22.9151" y1="17.1311" x2="16.5389" y2="20.5664" gradientUnits="userSpaceOnUse">
<stop stop-color="#B0FF4D"/>
<stop offset="1" stop-color="#FFE926"/>
</linearGradient>
<linearGradient id="paint2_linear_7576_2324" x1="35.625" y1="14.1191" x2="20.9144" y2="34.9114" gradientUnits="userSpaceOnUse">
<stop stop-color="#B0FF4D"/>
<stop offset="1" stop-color="#FFE926"/>
</linearGradient>
<linearGradient id="paint3_linear_7576_2324" x1="29.2941" y1="6.25" x2="6.08594" y2="14.671" gradientUnits="userSpaceOnUse">
<stop stop-color="#B0FF4D"/>
<stop offset="1" stop-color="#FFE926"/>
</linearGradient>
<linearGradient id="paint4_linear_7576_2324" x1="29.3523" y1="6.28174" x2="6.10008" y2="14.7473" gradientUnits="userSpaceOnUse">
<stop stop-color="#B0FF4D"/>
<stop offset="1" stop-color="#FFE926"/>
</linearGradient>
<clipPath id="clip0_7576_2324">
<rect width="40" height="40" fill="white"/>
</clipPath>
</defs>
</svg>
