<svg width="62" height="62" viewBox="0 0 62 62" fill="none" xmlns="http://www.w3.org/2000/svg">
<g id="StarFour">
<g id="Vector" filter="url(#filter0_d_4_8262)">
<path d="M45.0749 27.0001C45.0779 27.4102 44.9531 27.8111 44.7179 28.1471C44.4827 28.4831 44.1488 28.7376 43.7624 28.8751L35.7749 31.7751L32.8749 39.7626C32.7328 40.1454 32.477 40.4755 32.1418 40.7086C31.8066 40.9417 31.4081 41.0667 30.9999 41.0667C30.5916 41.0667 30.1931 40.9417 29.8579 40.7086C29.5228 40.4755 29.267 40.1454 29.1249 39.7626L26.2249 31.7751L18.2374 28.8751C17.8546 28.7331 17.5245 28.4772 17.2914 28.1421C17.0583 27.8069 16.9333 27.4084 16.9333 27.0001C16.9333 26.5919 17.0583 26.1934 17.2914 25.8582C17.5245 25.523 17.8546 25.2672 18.2374 25.1251L26.2249 22.2251L29.1249 14.2376C29.267 13.8549 29.5228 13.5248 29.8579 13.2917C30.1931 13.0585 30.5916 12.9336 30.9999 12.9336C31.4081 12.9336 31.8066 13.0585 32.1418 13.2917C32.477 13.5248 32.7328 13.8549 32.8749 14.2376L35.7749 22.2251L43.7624 25.1251C44.1488 25.2627 44.4827 25.5171 44.7179 25.8531C44.9531 26.1891 45.0779 26.59 45.0749 27.0001Z" fill="#0EA5E9"/>
</g>
</g>
<defs>
<filter id="filter0_d_4_8262" x="0.93335" y="0.933594" width="60.1416" height="60.1331" filterUnits="userSpaceOnUse" color-interpolation-filters="sRGB">
<feFlood flood-opacity="0" result="BackgroundImageFix"/>
<feColorMatrix in="SourceAlpha" type="matrix" values="0 0 0 0 0 0 0 0 0 0 0 0 0 0 0 0 0 0 127 0" result="hardAlpha"/>
<feOffset dy="4"/>
<feGaussianBlur stdDeviation="8"/>
<feComposite in2="hardAlpha" operator="out"/>
<feColorMatrix type="matrix" values="0 0 0 0 0.254063 0 0 0 0 0.798887 0 0 0 0 0.970937 0 0 0 0.48 0"/>
<feBlend mode="normal" in2="BackgroundImageFix" result="effect1_dropShadow_4_8262"/>
<feBlend mode="normal" in="SourceGraphic" in2="effect1_dropShadow_4_8262" result="shape"/>
</filter>
</defs>
</svg>
