<svg width="20" height="20" viewBox="0 0 20 20" fill="none" xmlns="http://www.w3.org/2000/svg">
<g clip-path="url(#clip0_7749_2082)">
<path d="M19.0834 0.16668C19 0.0833203 18.9167 0 18.7501 0H1.25001C1.16669 0 1.00005 0.0833203 0.916694 0.16668C0.833335 0.250039 0.833374 0.333359 0.833374 0.5L2.50005 17.1667C2.50005 17.3334 2.66673 17.5 2.75001 17.5L10.25 20H10.4167H10.5834L17.25 17.5C17.4167 17.4167 17.5 17.3333 17.5 17.1667L19.1667 0.5C19.1667 0.416719 19.1667 0.25 19.0834 0.16668Z" fill="url(#paint0_linear_7749_2082)"/>
<path d="M9.89586 15.0834C9.89586 15.1667 9.8125 15.3334 9.72918 15.4167C9.64586 15.5 9.55758 15.5111 9.4743 15.5111L9.3959 15.5L6.47922 14.6667C6.31254 14.5834 6.22926 14.5 6.1459 14.3334L5.72922 12.25C5.6459 12 5.81254 11.8333 6.06254 11.75C6.3125 11.6667 6.47922 11.8333 6.56258 12.0833L6.8959 13.9166L9.06258 14.5V5.08336H4.47918C4.22922 5.08336 4.0625 4.91668 4.0625 4.66668C4.0625 4.41672 4.22918 4.25 4.47918 4.25H9.47918C9.72914 4.25 9.89586 4.41668 9.89586 4.66668V15.0834ZM15.7292 4.75L15.3125 6.41668C15.2292 6.66664 15.0593 6.79008 14.8125 6.75C14.5524 6.70781 14.4528 6.49863 14.4792 6.24996C14.5106 5.95332 14.7291 5.08332 14.7291 5.08332H11.4791V9.25H14.3958C14.4791 9.25 14.6458 9.33332 14.7291 9.41668C14.8125 9.5 14.8125 9.66664 14.8125 9.75L13.9791 14.3333C13.9791 14.5 13.8125 14.5833 13.7292 14.6666L11.2292 15.5C11.1459 15.5 10.8431 15.6152 10.6458 15.25C10.5625 15 10.7291 14.8333 10.8958 14.75L13.1458 14L13.8125 10.1666H10.9791C10.7291 10.1666 10.5624 9.99992 10.5624 9.74992V4.74992C10.5624 4.49996 10.7291 4.33324 10.9791 4.33324H15.1458C15.3125 4.33324 15.4265 4.36887 15.5354 4.41398C15.7665 4.50973 15.7292 4.66668 15.7292 4.75Z" fill="url(#paint1_linear_7749_2082)"/>
</g>
<defs>
<linearGradient id="paint0_linear_7749_2082" x1="13.7607" y1="2.42538e-08" x2="2.3523" y2="16.5512" gradientUnits="userSpaceOnUse">
<stop stop-color="#131416"/>
<stop offset="1" stop-color="#1A1B1F"/>
</linearGradient>
<linearGradient id="paint1_linear_7749_2082" x1="15.7314" y1="4.25" x2="3.17415" y2="11.2565" gradientUnits="userSpaceOnUse">
<stop stop-color="#B0FF4D"/>
<stop offset="1" stop-color="#FFE926"/>
</linearGradient>
<clipPath id="clip0_7749_2082">
<rect width="20" height="20" fill="white"/>
</clipPath>
</defs>
</svg>
