<svg width="20" height="20" viewBox="0 0 20 20" fill="none" xmlns="http://www.w3.org/2000/svg">
<g clip-path="url(#clip0_7749_6407)">
<path d="M15.3125 0H4.6875C2.09867 0 0 2.09867 0 4.6875V15.3125C0 17.9013 2.09867 20 4.6875 20H15.3125C17.9013 20 20 17.9013 20 15.3125V4.6875C20 2.09867 17.9013 0 15.3125 0Z" fill="url(#paint0_linear_7749_6407)"/>
<path d="M7.94017 14.267C7.94017 14.267 7.34017 14.6322 8.35774 14.7366C9.58649 14.8932 10.2362 14.867 11.5927 14.6063C11.5927 14.6063 11.9578 14.8414 12.4536 15.0238C9.40087 16.3282 5.53978 14.9455 7.94017 14.267ZM7.54884 12.5713C7.54884 12.5713 6.89649 13.0671 7.91399 13.1712C9.24431 13.3016 10.2883 13.3278 12.0884 12.9629C12.0884 12.9629 12.3235 13.2239 12.7146 13.3543C9.03626 14.45 4.91384 13.4584 7.54884 12.5715V12.5713ZM14.7496 15.5455C14.7496 15.5455 15.1931 15.9107 14.2538 16.1979C12.5057 16.7196 6.92267 16.8764 5.35728 16.1979C4.8097 15.9628 5.85313 15.6235 6.19212 15.5717C6.53134 15.4934 6.71384 15.4934 6.71384 15.4934C6.11384 15.0759 2.72204 16.3543 4.99188 16.7222C11.2273 17.74 16.3671 16.2788 14.7494 15.5482L14.7496 15.5455ZM8.22712 10.797C8.22712 10.797 5.38321 11.4755 7.20931 11.71C7.99204 11.8142 9.53126 11.7883 10.9663 11.6839C12.1403 11.5797 13.317 11.3708 13.317 11.3708C13.317 11.3708 12.8995 11.5535 12.6126 11.736C9.71423 12.4932 4.15712 12.154 5.74868 11.3713C7.10571 10.719 8.22712 10.797 8.22712 10.797ZM13.3143 13.6408C16.2367 12.1275 14.8797 10.6666 13.9405 10.8493C13.7054 10.9015 13.6013 10.9536 13.6013 10.9536C13.6013 10.9536 13.6795 10.797 13.8622 10.7452C15.7145 10.0929 17.1757 12.7019 13.2623 13.7194C13.2623 13.7194 13.2884 13.6932 13.3143 13.6411V13.6408ZM8.51399 17.7627C11.3317 17.9454 15.6365 17.6585 15.7409 16.3276C15.7409 16.3276 15.5326 16.8493 13.4191 17.2407C11.0189 17.6842 8.04438 17.6321 6.29657 17.3449C6.29657 17.3449 6.66173 17.6579 8.51423 17.7624L8.51399 17.7627Z" fill="url(#paint1_linear_7749_6407)"/>
<g filter="url(#filter0_d_7749_6407)">
<path d="M11.5379 2.1875C11.5379 2.1875 13.1554 3.83117 9.99865 6.30938C7.46787 8.31813 9.42435 9.46625 9.99865 10.7704C8.51154 9.44008 7.44224 8.26578 8.17232 7.17C9.24458 5.55336 12.1923 4.77062 11.5379 2.1875ZM10.7031 9.67516C11.4596 10.5361 10.4947 11.3188 10.4947 11.3188C10.4947 11.3188 12.4253 10.3277 11.5384 9.10109C10.7295 7.92703 10.1034 7.35297 13.4951 5.39602C13.4951 5.39602 8.14669 6.72633 10.7036 9.67461L10.7031 9.67516Z" fill="url(#paint2_linear_7749_6407)"/>
<path d="M9.9094 6.19569L9.90879 6.19617C9.26541 6.70684 8.89229 7.17421 8.71594 7.61698C8.53752 8.06493 8.56599 8.4739 8.69777 8.85171C8.82744 9.22347 9.05807 9.56704 9.28189 9.88828C9.29108 9.90147 9.30026 9.91462 9.30941 9.92773C8.91749 9.53742 8.59467 9.1652 8.37762 8.8073C8.20395 8.52094 8.10332 8.25204 8.0847 7.99724C8.06632 7.74563 8.12714 7.49848 8.2926 7.25014L8.29276 7.24989C8.5482 6.86478 8.91915 6.52406 9.3341 6.18458C9.46766 6.07531 9.60665 5.96554 9.74715 5.85458C10.0365 5.6261 10.3322 5.39256 10.6001 5.14791C11.0012 4.78161 11.3586 4.37487 11.5714 3.88612C11.6891 3.61573 11.7613 3.3232 11.7741 3.00262C11.7935 3.09982 11.8059 3.20613 11.8075 3.32107C11.8165 3.98076 11.4671 4.97281 9.9094 6.19569ZM11.2225 6.54872C11.5639 6.31352 11.9439 6.11993 12.2966 5.96707C11.999 6.16789 11.7525 6.35291 11.5508 6.52564C11.1367 6.88025 10.8985 7.19383 10.8035 7.49922C10.7062 7.81224 10.766 8.09389 10.8956 8.36448C10.999 8.58056 11.1533 8.80147 11.3143 9.03193C11.3492 9.08185 11.3843 9.13223 11.4194 9.18309L11.4194 9.18312L11.4213 9.18578C11.6203 9.46108 11.6555 9.71168 11.6081 9.93513C11.5593 10.1651 11.4197 10.3812 11.2432 10.5717C11.1883 10.6309 11.1307 10.6867 11.0725 10.7388C11.1199 10.6025 11.1473 10.4488 11.1337 10.2834C11.1178 10.0889 11.046 9.88686 10.8971 9.68549L10.901 9.68159L10.8128 9.57991C10.194 8.86642 10.0749 8.2782 10.2009 7.79904C10.3297 7.30915 10.7248 6.89169 11.2225 6.54872Z" stroke="url(#paint3_linear_7749_6407)" stroke-opacity="0.12" stroke-width="0.289062"/>
</g>
</g>
<defs>
<filter id="filter0_d_7749_6407" x="5.93701" y="0.1875" width="9.55811" height="13.1313" filterUnits="userSpaceOnUse" color-interpolation-filters="sRGB">
<feFlood flood-opacity="0" result="BackgroundImageFix"/>
<feColorMatrix in="SourceAlpha" type="matrix" values="0 0 0 0 0 0 0 0 0 0 0 0 0 0 0 0 0 0 127 0" result="hardAlpha"/>
<feOffset/>
<feGaussianBlur stdDeviation="1"/>
<feComposite in2="hardAlpha" operator="out"/>
<feColorMatrix type="matrix" values="0 0 0 0 0.482353 0 0 0 0 0.839216 0 0 0 0 1 0 0 0 0.24 0"/>
<feBlend mode="normal" in2="BackgroundImageFix" result="effect1_dropShadow_7749_6407"/>
<feBlend mode="normal" in="SourceGraphic" in2="effect1_dropShadow_7749_6407" result="shape"/>
</filter>
<linearGradient id="paint0_linear_7749_6407" x1="14.1026" y1="2.42538e-08" x2="3.07773" y2="17.4489" gradientUnits="userSpaceOnUse">
<stop stop-color="#131416"/>
<stop offset="1" stop-color="#1A1B1F"/>
</linearGradient>
<linearGradient id="paint1_linear_7749_6407" x1="15.7409" y1="10.6418" x2="6.44691" y2="18.6879" gradientUnits="userSpaceOnUse">
<stop stop-color="#B0FF4D"/>
<stop offset="1" stop-color="#FFE926"/>
</linearGradient>
<linearGradient id="paint2_linear_7749_6407" x1="7.93701" y1="2.1875" x2="14.266" y2="2.75738" gradientUnits="userSpaceOnUse">
<stop stop-color="#048CD7"/>
<stop offset="1" stop-color="#7AD6FF"/>
</linearGradient>
<linearGradient id="paint3_linear_7749_6407" x1="7.72324" y1="0.361236" x2="13.6066" y2="0.581612" gradientUnits="userSpaceOnUse">
<stop stop-color="white" stop-opacity="0.37"/>
<stop offset="1" stop-color="white"/>
</linearGradient>
<clipPath id="clip0_7749_6407">
<rect width="20" height="20" fill="white"/>
</clipPath>
</defs>
</svg>
