<svg width="20" height="20" viewBox="0 0 20 20" fill="none" xmlns="http://www.w3.org/2000/svg">
<g clip-path="url(#clip0_7749_2050)">
<path d="M15.3125 0H4.6875C2.09867 0 0 2.09867 0 4.6875V15.3125C0 17.9013 2.09867 20 4.6875 20H15.3125C17.9013 20 20 17.9013 20 15.3125V4.6875C20 2.09867 17.9013 0 15.3125 0Z" fill="url(#paint0_linear_7749_2050)"/>
<path d="M9.48828 2.19162C9.45469 2.19467 9.34773 2.20537 9.25148 2.21295C7.03227 2.41303 4.95352 3.61053 3.63688 5.451C2.90383 6.47436 2.43484 7.63514 2.25773 8.86475C2.19516 9.29397 2.1875 9.42076 2.1875 10.0026C2.1875 10.5846 2.19516 10.7114 2.25781 11.1405C2.68234 14.0746 4.77031 16.5398 7.60203 17.4532C8.10914 17.6166 8.64367 17.7281 9.25156 17.7953C9.48836 17.8212 10.5116 17.8212 10.7484 17.7953C11.7977 17.6792 12.6866 17.4196 13.5634 16.972C13.6977 16.9033 13.7237 16.885 13.7054 16.8697C13.6932 16.8605 13.1204 16.0922 12.4331 15.1637L11.1838 13.4759L9.61812 11.1589C8.75672 9.88506 8.04805 8.84334 8.04187 8.84334C8.03578 8.84186 8.02969 9.87131 8.02664 11.1283C8.02203 13.3293 8.02055 13.4179 7.99305 13.4697C7.95336 13.5446 7.92281 13.5751 7.85859 13.6088C7.80977 13.6332 7.76695 13.6378 7.53633 13.6378H7.27211L7.2018 13.5935C7.15827 13.5662 7.12291 13.5277 7.09945 13.482L7.06742 13.4133L7.07055 10.3509L7.07508 7.28701L7.12242 7.2274C7.14687 7.19537 7.19883 7.15412 7.23547 7.13428C7.29805 7.10373 7.3225 7.10068 7.58672 7.10068C7.89836 7.10068 7.95023 7.11287 8.03125 7.20147C8.05414 7.22592 8.9018 8.50279 9.91602 10.0408C10.9428 11.5976 11.9702 13.154 12.9982 14.71L14.2354 16.5841L14.298 16.5429C14.8524 16.1824 15.439 15.6692 15.9033 15.1346C16.8915 13.9997 17.5284 12.616 17.7423 11.1405C17.8048 10.7114 17.8125 10.5846 17.8125 10.0026C17.8125 9.42076 17.8048 9.29397 17.7423 8.86475C17.3177 5.93068 15.2297 3.46553 12.398 2.55217C11.8985 2.39021 11.367 2.27873 10.7713 2.21154C10.6247 2.19623 9.61508 2.17951 9.48836 2.1917L9.48828 2.19162ZM12.6866 6.91732C12.7598 6.95397 12.8195 7.0242 12.8409 7.09748C12.853 7.13725 12.8561 7.98646 12.853 9.90022L12.8484 12.6465L12.3643 11.9041L11.8786 11.1619V9.16561C11.8786 7.87498 11.8847 7.14943 11.8938 7.11428C11.9183 7.02881 11.9717 6.96162 12.0451 6.92186C12.1077 6.88982 12.1306 6.8867 12.3704 6.8867C12.5965 6.8867 12.6362 6.88982 12.6866 6.91732Z" fill="url(#paint1_linear_7749_2050)"/>
</g>
<defs>
<linearGradient id="paint0_linear_7749_2050" x1="14.1026" y1="2.42538e-08" x2="3.07773" y2="17.4489" gradientUnits="userSpaceOnUse">
<stop stop-color="#131416"/>
<stop offset="1" stop-color="#1A1B1F"/>
</linearGradient>
<linearGradient id="paint1_linear_7749_2050" x1="17.8125" y1="2.1875" x2="0.722342" y2="11.3937" gradientUnits="userSpaceOnUse">
<stop stop-color="#B0FF4D"/>
<stop offset="1" stop-color="#FFE926"/>
</linearGradient>
<clipPath id="clip0_7749_2050">
<rect width="20" height="20" fill="white"/>
</clipPath>
</defs>
</svg>
