<svg width="20" height="20" viewBox="0 0 20 20" fill="none" xmlns="http://www.w3.org/2000/svg">
<rect width="20" height="20" rx="4" fill="url(#paint0_linear_7749_2047)"/>
<path d="M10.0001 16.875C9.81456 16.8751 9.63232 16.8263 9.47166 16.7336L7.79021 15.7382C7.53927 15.5977 7.66155 15.5481 7.74454 15.5191C8.01143 15.4367 8.26697 15.3212 8.50522 15.1754C8.52516 15.1662 8.54713 15.1622 8.56904 15.1638C8.59095 15.1654 8.61209 15.1726 8.63044 15.1847L9.92247 15.9523C9.94653 15.965 9.97333 15.9716 10.0006 15.9716C10.0278 15.9716 10.0546 15.965 10.0786 15.9523L15.1171 13.0441C15.1407 13.03 15.1602 13.01 15.1737 12.986C15.1872 12.9621 15.1943 12.9351 15.1942 12.9076V7.09027C15.1942 7.06235 15.187 7.03489 15.1734 7.01055C15.1597 6.98621 15.14 6.9658 15.1161 6.95129L10.0777 4.04558C10.0539 4.0322 10.0271 4.02517 9.99981 4.02517C9.97255 4.02517 9.94574 4.0322 9.92198 4.04558L4.88646 6.95227C4.86244 6.96648 4.8425 6.98665 4.82856 7.01082C4.81462 7.035 4.80717 7.06236 4.80691 7.09027V12.9051C4.80698 12.9325 4.81433 12.9595 4.82823 12.9831C4.84212 13.0067 4.86205 13.0263 4.88597 13.0397L6.26787 13.8372C7.01676 14.2114 7.47543 13.7704 7.47543 13.3275V7.58626C7.47543 7.54718 7.49095 7.50971 7.51858 7.48208C7.54621 7.45445 7.58368 7.43893 7.62275 7.43893H8.26115C8.30022 7.43893 8.3377 7.45445 8.36533 7.48208C8.39295 7.50971 8.40848 7.54718 8.40848 7.58626V13.3279C8.40848 14.3273 7.86436 14.8994 6.91658 14.8994C6.5077 14.9065 6.10523 14.7972 5.75616 14.5841L4.43172 13.8244C4.27094 13.7308 4.13753 13.5966 4.04481 13.4353C3.95209 13.274 3.9033 13.0912 3.90332 12.9051V7.09027C3.90285 6.90392 3.95142 6.72072 4.04418 6.5591C4.13693 6.39747 4.27059 6.2631 4.43172 6.16949L9.47068 3.26035C9.63299 3.17154 9.81504 3.125 10.0001 3.125C10.1851 3.125 10.3671 3.17154 10.5294 3.26035L15.5679 6.16949C15.7287 6.26294 15.8621 6.39692 15.9549 6.55806C16.0477 6.7192 16.0966 6.90186 16.0968 7.08781V12.9051C16.0965 13.0912 16.0476 13.2739 15.9548 13.4352C15.862 13.5965 15.7286 13.7307 15.5679 13.8244L10.5294 16.7336C10.3685 16.8264 10.1859 16.8752 10.0001 16.875Z" fill="url(#paint1_linear_7749_2047)"/>
<path d="M9.04442 10.959C9.04442 10.9199 9.05994 10.8824 9.08757 10.8548C9.1152 10.8272 9.15267 10.8117 9.19175 10.8117H9.84341C9.87823 10.8118 9.91188 10.8242 9.9384 10.8468C9.96492 10.8693 9.98259 10.9006 9.98827 10.9349C10.0865 11.5984 10.3811 11.9328 11.7134 11.9328C12.7747 11.9328 13.2269 11.6927 13.2269 11.1294C13.2269 10.8048 13.0988 10.5637 11.4492 10.4021C10.0703 10.2656 9.21777 9.96013 9.21777 8.85815C9.21777 7.84162 10.0747 7.23513 11.5111 7.23513C13.1253 7.23513 13.9243 7.79545 14.0254 8.99761C14.027 9.01768 14.0244 9.03786 14.0178 9.05689C14.0113 9.07592 14.0009 9.09341 13.9873 9.10827C13.9737 9.12314 13.9573 9.13506 13.9389 9.14331C13.9205 9.15156 13.9007 9.15596 13.8806 9.15623H13.2245C13.1916 9.15577 13.1598 9.1443 13.1341 9.12365C13.1085 9.103 13.0905 9.07436 13.083 9.0423C12.9264 8.34448 12.5429 8.12153 11.5116 8.12153C10.3527 8.12153 10.2181 8.5252 10.2181 8.8277C10.2181 9.19405 10.3772 9.3011 11.9418 9.50784C13.4902 9.71262 14.2258 10.0024 14.2258 11.0906C14.2258 12.1886 13.3104 12.8172 11.7139 12.8172C9.50653 12.8202 9.04442 11.8081 9.04442 10.959Z" fill="url(#paint2_linear_7749_2047)"/>
<defs>
<linearGradient id="paint0_linear_7749_2047" x1="14.1026" y1="2.42538e-08" x2="3.07773" y2="17.4489" gradientUnits="userSpaceOnUse">
<stop stop-color="#131416"/>
<stop offset="1" stop-color="#1A1B1F"/>
</linearGradient>
<linearGradient id="paint1_linear_7749_2047" x1="16.0968" y1="3.125" x2="2.08766" y2="9.81816" gradientUnits="userSpaceOnUse">
<stop stop-color="#B0FF4D"/>
<stop offset="1" stop-color="#FFE926"/>
</linearGradient>
<linearGradient id="paint2_linear_7749_2047" x1="16.0968" y1="3.125" x2="2.08766" y2="9.81816" gradientUnits="userSpaceOnUse">
<stop stop-color="#B0FF4D"/>
<stop offset="1" stop-color="#FFE926"/>
</linearGradient>
</defs>
</svg>
