<svg width="20" height="20" viewBox="0 0 20 20" fill="none" xmlns="http://www.w3.org/2000/svg">
<g clip-path="url(#clip0_7749_2036)">
<path d="M15.3125 0H4.6875C2.09867 0 0 2.09867 0 4.6875V15.3125C0 17.9013 2.09867 20 4.6875 20H15.3125C17.9013 20 20 17.9013 20 15.3125V4.6875C20 2.09867 17.9013 0 15.3125 0Z" fill="url(#paint0_linear_7749_2036)"/>
<g filter="url(#filter0_d_7749_2036)">
<path d="M9.94367 2.26562C5.97711 2.26562 6.22477 3.98578 6.22477 3.98578L6.22922 5.76781H10.0145V6.30297H4.7257C4.7257 6.30297 2.1875 6.015 2.1875 10.0173C2.1875 14.0196 4.40289 13.8777 4.40289 13.8777H5.72508V12.0205C5.72508 12.0205 5.65383 9.80508 7.90516 9.80508H11.6594C11.6594 9.80508 13.7687 9.83914 13.7687 7.76648V4.33953C13.7687 4.33953 14.0889 2.26562 9.94367 2.26562ZM7.85648 3.46398C7.94594 3.46389 8.03454 3.48144 8.11721 3.51564C8.19987 3.54983 8.27498 3.59999 8.33824 3.66324C8.4015 3.7265 8.45166 3.80161 8.48585 3.88428C8.52004 3.96694 8.53759 4.05554 8.5375 4.145C8.53758 4.23445 8.52002 4.32304 8.48583 4.4057C8.45163 4.48836 8.40147 4.56346 8.33821 4.62671C8.27496 4.68995 8.19985 4.74011 8.11719 4.77429C8.03453 4.80848 7.94594 4.82603 7.85648 4.82594C7.76704 4.82602 7.67846 4.80846 7.5958 4.77427C7.51315 4.74008 7.43805 4.68993 7.37481 4.62668C7.31156 4.56343 7.2614 4.48833 7.22721 4.40568C7.19302 4.32303 7.17546 4.23445 7.17555 4.145C7.17545 4.05555 7.193 3.96696 7.22719 3.8843C7.26138 3.80163 7.31153 3.72653 7.37478 3.66327C7.43803 3.60001 7.51313 3.54985 7.59579 3.51566C7.67844 3.48146 7.76703 3.4639 7.85648 3.46398Z" fill="url(#paint1_linear_7749_2036)"/>
<path d="M7.85648 3.31945C7.96489 3.31936 8.07226 3.34064 8.17245 3.38208C8.27268 3.42353 8.36375 3.48435 8.44044 3.56104C8.51714 3.63774 8.57795 3.72881 8.61941 3.82904C8.66086 3.92926 8.68214 4.03669 8.68203 4.14515L8.5375 4.145L8.68203 4.14487C8.68213 4.25332 8.66084 4.36073 8.61938 4.46095L7.85648 3.31945ZM7.85648 3.31945C7.85652 3.31945 7.85657 3.31945 7.85662 3.31945L7.85648 3.46398L7.85634 3.31945C7.85638 3.31945 7.85643 3.31945 7.85648 3.31945ZM6.3693 3.98542L6.36927 3.97525L6.36797 3.96618C6.36795 3.96601 6.36792 3.96579 6.36789 3.9655L6.36716 3.95679C6.36658 3.9481 6.36598 3.93386 6.36637 3.91486C6.36716 3.87684 6.37192 3.82008 6.38858 3.75078C6.42162 3.61331 6.50226 3.42285 6.6985 3.22836C7.09264 2.83773 7.97581 2.41016 9.94367 2.41016C11.9963 2.41016 12.9014 2.92389 13.3002 3.39586C13.5004 3.6327 13.5806 3.86736 13.6117 4.04091C13.6272 4.12798 13.6304 4.19981 13.6298 4.24874C13.6295 4.27317 13.6283 4.29179 13.6273 4.3036L13.626 4.31605L13.6258 4.31772L13.6258 4.31793L13.6257 4.31811L13.6257 4.3182L13.6257 4.31828L13.6241 4.32844V4.33953V7.76648C13.6241 8.25886 13.4993 8.61611 13.3199 8.87766C13.1398 9.14023 12.8984 9.31541 12.652 9.43248C12.4051 9.54982 12.1563 9.60722 11.9678 9.63503C11.874 9.64889 11.7961 9.65526 11.7422 9.65817C11.7153 9.65963 11.6944 9.66021 11.6807 9.66044L11.6655 9.66058L11.6621 9.66057L11.6617 9.66056V9.66055H11.6594H7.90516C7.31756 9.66055 6.87103 9.80549 6.53428 10.0312C6.19827 10.2564 5.98074 10.5557 5.84037 10.8507C5.70032 11.1449 5.63576 11.4373 5.60593 11.6547C5.59097 11.7637 5.58461 11.8549 5.582 11.9194C5.5807 11.9517 5.58033 11.9774 5.5803 11.9953L5.58043 12.0164L5.58055 12.0223L5.58055 12.0224V13.7332H4.40289V13.7329L4.39427 13.7335L4.39411 13.7335L4.39406 13.7335L4.39388 13.7335L4.39365 13.7335L4.39149 13.7336L4.37746 13.7338C4.36432 13.7339 4.34384 13.7335 4.31707 13.7318C4.26349 13.7283 4.18506 13.7192 4.09007 13.6967C3.90036 13.6518 3.64492 13.5532 3.38811 13.3377C2.87819 12.9097 2.33203 11.9929 2.33203 10.0173C2.33203 8.04775 2.95463 7.17244 3.53746 6.77906C3.83289 6.57966 4.12849 6.49661 4.35046 6.46346C4.46135 6.44689 4.55323 6.44289 4.61652 6.44294C4.64813 6.44297 4.6725 6.44401 4.68841 6.44498L4.70575 6.44624L4.70935 6.44658L4.70941 6.44658L4.7096 6.4466L4.70973 6.44662L4.70983 6.44663L4.71753 6.4475H4.7257H10.0145H10.159V6.30297V5.76781V5.62328H10.0145H6.37339L6.3693 3.98542Z" stroke="url(#paint2_linear_7749_2036)" stroke-opacity="0.12" stroke-width="0.289062"/>
</g>
<path d="M10.0563 17.8093C14.0228 17.8093 13.7752 16.0892 13.7752 16.0892L13.7707 14.3071H9.9855V13.772H15.2742C15.2742 13.772 17.8124 14.0599 17.8124 10.0575C17.8124 6.0552 15.5971 6.19716 15.5971 6.19716H14.2749V8.05442C14.2749 8.05442 14.3461 10.2698 12.0948 10.2698H8.34057C8.34057 10.2698 6.2312 10.2357 6.2312 12.3083V15.7354C6.2312 15.7354 5.91096 17.8093 10.0563 17.8093ZM12.1435 16.6109C12.054 16.611 11.9654 16.5934 11.8828 16.5593C11.8001 16.5251 11.725 16.4749 11.6617 16.4117C11.5985 16.3484 11.5483 16.2733 11.5141 16.1907C11.4799 16.108 11.4624 16.0194 11.4624 15.93C11.4624 15.8405 11.4799 15.7519 11.5141 15.6692C11.5483 15.5866 11.5985 15.5115 11.6617 15.4482C11.725 15.385 11.8001 15.3348 11.8827 15.3006C11.9654 15.2664 12.054 15.2489 12.1435 15.249C12.2329 15.2489 12.3215 15.2664 12.4042 15.3006C12.4868 15.3348 12.5619 15.385 12.6252 15.4482C12.6885 15.5115 12.7386 15.5866 12.7728 15.6693C12.807 15.7519 12.8246 15.8405 12.8245 15.93C12.8246 16.0194 12.807 16.108 12.7728 16.1907C12.7386 16.2733 12.6884 16.3484 12.6252 16.4117C12.5619 16.4749 12.4868 16.5251 12.4042 16.5592C12.3215 16.5934 12.2329 16.611 12.1435 16.6109Z" fill="url(#paint3_linear_7749_2036)"/>
</g>
<defs>
<filter id="filter0_d_7749_2036" x="0.1875" y="0.265625" width="15.5869" height="15.6128" filterUnits="userSpaceOnUse" color-interpolation-filters="sRGB">
<feFlood flood-opacity="0" result="BackgroundImageFix"/>
<feColorMatrix in="SourceAlpha" type="matrix" values="0 0 0 0 0 0 0 0 0 0 0 0 0 0 0 0 0 0 127 0" result="hardAlpha"/>
<feOffset/>
<feGaussianBlur stdDeviation="1"/>
<feComposite in2="hardAlpha" operator="out"/>
<feColorMatrix type="matrix" values="0 0 0 0 0.482353 0 0 0 0 0.839216 0 0 0 0 1 0 0 0 0.24 0"/>
<feBlend mode="normal" in2="BackgroundImageFix" result="effect1_dropShadow_7749_2036"/>
<feBlend mode="normal" in="SourceGraphic" in2="effect1_dropShadow_7749_2036" result="shape"/>
</filter>
<linearGradient id="paint0_linear_7749_2036" x1="14.1026" y1="2.42538e-08" x2="3.07773" y2="17.4489" gradientUnits="userSpaceOnUse">
<stop stop-color="#131416"/>
<stop offset="1" stop-color="#1A1B1F"/>
</linearGradient>
<linearGradient id="paint1_linear_7749_2036" x1="2.1875" y1="2.26562" x2="15.2049" y2="4.18699" gradientUnits="userSpaceOnUse">
<stop stop-color="#048CD7"/>
<stop offset="1" stop-color="#7AD6FF"/>
</linearGradient>
<linearGradient id="paint2_linear_7749_2036" x1="1.74185" y1="-0.0569197" x2="13.9778" y2="0.69439" gradientUnits="userSpaceOnUse">
<stop stop-color="white" stop-opacity="0.37"/>
<stop offset="1" stop-color="white"/>
</linearGradient>
<linearGradient id="paint3_linear_7749_2036" x1="17.8124" y1="6.19653" x2="5.12713" y2="13.0157" gradientUnits="userSpaceOnUse">
<stop stop-color="#B0FF4D"/>
<stop offset="1" stop-color="#FFE926"/>
</linearGradient>
<clipPath id="clip0_7749_2036">
<rect width="20" height="20" fill="white"/>
</clipPath>
</defs>
</svg>
