<svg width="20" height="20" viewBox="0 0 20 20" fill="none" xmlns="http://www.w3.org/2000/svg">
<g clip-path="url(#clip0_7749_2054)">
<path d="M15.3125 0H4.6875C2.09867 0 0 2.09867 0 4.6875V15.3125C0 17.9013 2.09867 20 4.6875 20H15.3125C17.9013 20 20 17.9013 20 15.3125V4.6875C20 2.09867 17.9013 0 15.3125 0Z" fill="url(#paint0_linear_7749_2054)"/>
<path d="M10.0001 11.4804C10.8051 11.4804 11.4576 10.8279 11.4576 10.0229C11.4576 9.21801 10.8051 8.56543 10.0001 8.56543C9.19518 8.56543 8.5426 9.21801 8.5426 10.0229C8.5426 10.8279 9.19518 11.4804 10.0001 11.4804Z" fill="url(#paint1_linear_7749_2054)"/>
<path d="M5.09788 11.8613C4.28277 11.5827 3.65622 11.2314 3.24377 10.8782C2.8172 10.5129 2.6875 10.208 2.6875 10.023C2.6875 9.84736 2.8043 9.56636 3.20085 9.2271C3.58613 8.89747 4.17526 8.56832 4.94991 8.29826L4.94993 8.29826C6.26078 7.84121 8.06557 7.55957 9.99984 7.55957H10.0002C11.9148 7.55957 13.6757 7.83498 14.9828 8.28507L14.9829 8.28508C15.7701 8.55607 16.3777 8.88807 16.778 9.22211C17.1922 9.56768 17.3125 9.85107 17.3125 10.023C17.3125 10.2088 17.1799 10.5134 16.735 10.8798C16.305 11.2338 15.6525 11.5841 14.8056 11.8647L14.9629 12.3393L14.8056 11.8647C13.5308 12.2871 11.8231 12.5154 10.0002 12.5154C8.12488 12.5154 6.38199 12.3001 5.09788 11.8613ZM5.09788 11.8613L4.93617 12.3344M5.09788 11.8613L4.93617 12.3344M4.93617 12.3344C3.2207 11.7481 2.1875 10.8207 2.1875 10.023C2.1875 9.24895 3.15703 8.39379 4.78531 7.82613L4.93617 12.3344Z" stroke="url(#paint2_linear_7749_2054)"/>
<path d="M5.97057 13.5433C6.22506 12.203 6.86464 10.534 7.80344 8.88643L7.85349 8.79964C8.81006 7.14105 9.92825 5.75324 10.9711 4.84579L10.9712 4.84576C11.5992 4.29919 12.1904 3.93869 12.6797 3.75876C13.186 3.57261 13.4916 3.60995 13.6405 3.6958C13.8015 3.78863 13.9991 4.05568 14.0942 4.62415C14.186 5.17352 14.1636 5.91376 13.9836 6.78755L13.9836 6.78763C13.7129 8.10285 13.0574 9.69616 12.1466 11.2754C11.2097 12.9 10.1526 14.3022 9.13107 15.195L9.13106 15.195C8.48251 15.762 7.8652 16.1292 7.35313 16.3101C6.82353 16.4971 6.49457 16.4571 6.33437 16.3648L6.33422 16.3647C6.18221 16.2771 5.99716 16.0357 5.90137 15.5226C5.80831 15.0242 5.81751 14.3493 5.97056 13.5434L5.97057 13.5433Z" stroke="url(#paint3_linear_7749_2054)"/>
<path d="M7.85557 11.279L7.85558 11.2791C8.82475 12.9531 9.97275 14.3739 11.025 15.2794L11.025 15.2794C11.6469 15.8145 12.2269 16.1595 12.7052 16.3278C13.1975 16.501 13.4992 16.4613 13.6512 16.3733L13.6512 16.3732C13.8113 16.2806 14.0102 16.0156 14.1126 15.4634C14.2117 14.9295 14.2018 14.2112 14.0345 13.3662C13.771 12.0354 13.0842 10.4191 12.1447 8.7961C11.2313 7.21841 10.1782 5.855 9.17387 4.96331L9.17385 4.9633C8.50673 4.37094 7.87665 3.98183 7.35485 3.78705C6.81491 3.58549 6.48484 3.62339 6.32402 3.7165L6.32397 3.71653C6.17519 3.80265 5.99021 4.04873 5.89863 4.58029C5.81012 5.09411 5.8272 5.78628 5.98706 6.60333L7.85557 11.279ZM7.85557 11.279C6.89642 9.62244 6.2528 7.96026 5.98708 6.60341L7.85557 11.279Z" stroke="url(#paint4_linear_7749_2054)"/>
</g>
<defs>
<linearGradient id="paint0_linear_7749_2054" x1="14.1026" y1="2.42538e-08" x2="3.07773" y2="17.4489" gradientUnits="userSpaceOnUse">
<stop stop-color="#131416"/>
<stop offset="1" stop-color="#1A1B1F"/>
</linearGradient>
<linearGradient id="paint1_linear_7749_2054" x1="11.4576" y1="8.56543" x2="8.26947" y2="10.2831" gradientUnits="userSpaceOnUse">
<stop stop-color="#B0FF4D"/>
<stop offset="1" stop-color="#FFE926"/>
</linearGradient>
<linearGradient id="paint2_linear_7749_2054" x1="17.8125" y1="7.05957" x2="10.4572" y2="17.4557" gradientUnits="userSpaceOnUse">
<stop stop-color="#B0FF4D"/>
<stop offset="1" stop-color="#FFE926"/>
</linearGradient>
<linearGradient id="paint3_linear_7749_2054" x1="14.647" y1="3.125" x2="3.04294" y2="7.33548" gradientUnits="userSpaceOnUse">
<stop stop-color="#B0FF4D"/>
<stop offset="1" stop-color="#FFE926"/>
</linearGradient>
<linearGradient id="paint4_linear_7749_2054" x1="14.6762" y1="3.14087" x2="3.0501" y2="7.37365" gradientUnits="userSpaceOnUse">
<stop stop-color="#B0FF4D"/>
<stop offset="1" stop-color="#FFE926"/>
</linearGradient>
<clipPath id="clip0_7749_2054">
<rect width="20" height="20" fill="white"/>
</clipPath>
</defs>
</svg>
